<?xml version="1.0" standalone="no"?><svg xmlns="http://www.w3.org/2000/svg" viewBox="0 0 1440 320"><path fill="#0099ff" fill-opacity="1" d="M0,224L21.8,208C43.6,192,87,160,131,138.7C174.5,117,218,107,262,138.7C305.5,171,349,245,393,277.3C436.4,309,480,299,524,282.7C567.3,267,611,245,655,208C698.2,171,742,117,785,106.7C829.1,96,873,128,916,160C960,192,1004,224,1047,208C1090.9,192,1135,128,1178,128C1221.8,128,1265,192,1309,186.7C1352.7,181,1396,107,1418,69.3L1440,32L1440,320L1418.2,320C1396.4,320,1353,320,1309,320C1265.5,320,1222,320,1178,320C1134.5,320,1091,320,1047,320C1003.6,320,960,320,916,320C872.7,320,829,320,785,320C741.8,320,698,320,655,320C610.9,320,567,320,524,320C480,320,436,320,393,320C349.1,320,305,320,262,320C218.2,320,175,320,131,320C87.3,320,44,320,22,320L0,320Z"></path></svg>